<svg width="74" height="86" viewBox="0 0 74 86" fill="none" xmlns="http://www.w3.org/2000/svg">
<path d="M23 24H51" stroke="#9CA3AF" stroke-width="4" stroke-linecap="round"/>
<path d="M37 38V10" stroke="#9CA3AF" stroke-width="4" stroke-linecap="round"/>
<path d="M12.0156 66.375V80.2969H10.7812V66.375H12.0156ZM1.07812 72.2969C1.08594 69.3438 2.55469 67.4609 4.625 67.4531C6.6875 67.4609 8.17969 69.3438 8.17188 72.2969C8.17969 75.2578 6.6875 77.1328 4.625 77.125C2.55469 77.1328 1.08594 75.2578 1.07812 72.2969ZM2.26562 72.2969C2.26562 74.5547 3.23438 76.0391 4.625 76.0312C6.02344 76.0391 6.98438 74.5547 6.98438 72.2969C6.98438 70.0391 6.02344 68.5547 4.625 68.5469C3.23438 68.5547 2.26562 70.0391 2.26562 72.2969ZM21.625 67.75V76.7812H15.2031V67.75H21.625ZM16.4062 75.7812H20.4219V68.7344H16.4062V75.7812ZM24.6094 80.2969V66.375H25.8438V80.2969H24.6094ZM33.1875 70.6406C33.1953 73 34.9062 75.3984 36.9531 76.2812L36.2656 77.25C34.6406 76.5156 33.2422 74.9141 32.5938 72.9922C31.9453 75.0312 30.5391 76.7969 28.9531 77.5938L28.2188 76.625C30.2109 75.6719 31.9453 73.0469 31.9531 70.6406V68.8281H28.6719V67.8125H36.5V68.8281H33.1875V70.6406ZM38.4375 80.2656V66.375H39.6719V80.2656H38.4375ZM58.7344 72.9844V74.0156H46.0625V72.9844H58.7344ZM47.5938 77.7344C47.5859 76.1406 49.3906 75.2344 52.3906 75.2344C55.3672 75.2344 57.1562 76.1406 57.1719 77.7344C57.1562 79.3438 55.3672 80.2344 52.3906 80.2344C49.3906 80.2344 47.5859 79.3438 47.5938 77.7344ZM47.6719 71.6562V66.9375H57.1562V67.9688H48.875V70.6562H57.25V71.6562H47.6719ZM48.8438 77.7344C48.8281 78.7109 50.1641 79.2656 52.3906 79.2656C54.5938 79.2656 55.9297 78.7109 55.9375 77.7344C55.9297 76.7656 54.5938 76.2031 52.3906 76.1875C50.1641 76.2031 48.8281 76.7656 48.8438 77.7344ZM72.5938 74.0312V75.0469H59.875V74.0312H65.625V72.5625H61.5312V69.1719H69.7188V67.7344H61.4844V66.7344H70.9531V70.0938H62.75V71.5781H71.25V72.5625H66.8281V74.0312H72.5938ZM61.2969 77.1094V76.1094H71.0312V80.1406H69.7969V77.1094H61.2969Z" fill="#9CA3AF"/>
</svg>
