<svg width="21" height="20" viewBox="0 0 21 20" fill="none" xmlns="http://www.w3.org/2000/svg">
<path d="M9.99787 7.51849C8.43707 7.51849 7.16333 8.79222 7.16333 10.353C7.16333 11.9138 8.43707 13.1876 9.99787 13.1876C11.5587 13.1876 12.8324 11.9138 12.8324 10.353C12.8324 8.79222 11.5587 7.51849 9.99787 7.51849ZM18.4994 10.353C18.4994 9.17923 18.51 8.01607 18.4441 6.84441C18.3782 5.48349 18.0677 4.27567 17.0725 3.2805C16.0752 2.2832 14.8695 1.97487 13.5086 1.90895C12.3348 1.84303 11.1717 1.85366 10 1.85366C8.82621 1.85366 7.66305 1.84303 6.49138 1.90895C5.13046 1.97487 3.92264 2.28533 2.92747 3.2805C1.93017 4.2778 1.62184 5.48349 1.55592 6.84441C1.49 8.0182 1.50063 9.18136 1.50063 10.353C1.50063 11.5247 1.49 12.69 1.55592 13.8616C1.62184 15.2226 1.9323 16.4304 2.92747 17.4256C3.92477 18.4229 5.13046 18.7312 6.49138 18.7971C7.66517 18.863 8.82833 18.8524 10 18.8524C11.1738 18.8524 12.337 18.863 13.5086 18.7971C14.8695 18.7312 16.0774 18.4207 17.0725 17.4256C18.0698 16.4283 18.3782 15.2226 18.4441 13.8616C18.5121 12.69 18.4994 11.5268 18.4994 10.353ZM9.99787 14.7143C7.58437 14.7143 5.63655 12.7665 5.63655 10.353C5.63655 7.93952 7.58437 5.99171 9.99787 5.99171C12.4114 5.99171 14.3592 7.93952 14.3592 10.353C14.3592 12.7665 12.4114 14.7143 9.99787 14.7143ZM14.5378 6.83165C13.9743 6.83165 13.5193 6.37659 13.5193 5.81308C13.5193 5.24958 13.9743 4.79452 14.5378 4.79452C15.1013 4.79452 15.5564 5.24958 15.5564 5.81308C15.5565 5.94689 15.5303 6.07942 15.4792 6.20307C15.4281 6.32672 15.353 6.43908 15.2584 6.53369C15.1638 6.62831 15.0515 6.70333 14.9278 6.75446C14.8041 6.80558 14.6716 6.83182 14.5378 6.83165Z" fill="white"/>
</svg>
