<svg width="21" height="20" viewBox="0 0 21 20" fill="none" xmlns="http://www.w3.org/2000/svg">
<g clip-path="url(#clip0_59910_7577)">
<path d="M20.0829 5.4224C19.9696 5.01843 19.749 4.65269 19.4445 4.36407C19.1314 4.06657 18.7477 3.85376 18.3295 3.74573C16.7645 3.33323 10.4945 3.33323 10.4945 3.33323C7.88065 3.30349 5.2674 3.4343 2.66954 3.7249C2.25136 3.84091 1.86834 4.05847 1.55454 4.35823C1.2462 4.6549 1.02287 5.02073 0.906204 5.42157C0.625949 6.93135 0.489781 8.46435 0.499538 9.9999C0.489538 11.5341 0.625371 13.0666 0.906204 14.5782C1.02037 14.9774 1.24287 15.3416 1.55204 15.6357C1.8612 15.9299 2.2462 16.1424 2.66954 16.2549C4.25537 16.6666 10.4945 16.6666 10.4945 16.6666C13.1118 16.6963 15.7283 16.5655 18.3295 16.2749C18.7477 16.1669 19.1314 15.9541 19.4445 15.6566C19.7489 15.368 19.9693 15.0022 20.082 14.5982C20.3696 13.089 20.5094 11.5554 20.4995 10.0191C20.5212 8.47624 20.3815 6.93537 20.0829 5.42157V5.4224ZM8.5012 12.8532V7.1474L13.7179 10.0007L8.5012 12.8532Z" fill="white"/>
</g>
<defs>
<clipPath id="clip0_59910_7577">
<rect width="20" height="20" fill="white" transform="translate(0.5)"/>
</clipPath>
</defs>
</svg>
