<svg width="116" height="138" viewBox="0 0 116 138" fill="none" xmlns="http://www.w3.org/2000/svg">
<path d="M77.703 0.961457L93.6463 0.97458L90.4428 19.041C95.9583 23.1036 98.6455 29.9763 97.3483 36.7026L93.0672 58.9015L78.1867 58.8892L74.5957 36.3259C73.5493 29.7514 76.1588 23.1278 81.4082 19.0336L77.703 0.961457Z" fill="#E5E7EB"/>
<rect x="0.0644531" y="58.825" width="115.855" height="78.1222" rx="6.37732" transform="rotate(0.0471621 0.0644531 58.825)" fill="#E5E7EB"/>
<path fill-rule="evenodd" clip-rule="evenodd" d="M59.3097 58.8738L85.9056 81.3351L82.0804 81.7993L82.4547 85.4212L78.7253 85.7719L79.0037 89.5074L75.2744 89.8581L75.5528 93.5935L71.8235 93.9442L72.1019 97.6796L26.1206 58.8464L59.3097 58.8738Z" fill="#F3F4F6"/>
<path d="M54.8118 91.9014C55.1766 93.4649 53.904 95.0984 52.5281 95.4194C51.1522 95.7404 49.3447 94.8257 48.9799 93.2622C48.6151 91.6987 49.6675 89.6155 51.0434 89.2945C52.878 88.8664 54.447 90.3379 54.8118 91.9014Z" fill="#F3F4F6"/>
<path d="M61.832 91.9612C61.3028 93.4769 62.3942 95.2366 63.7281 95.7023C65.0619 96.1681 66.9565 95.451 67.4858 93.9353C68.015 92.4195 67.1905 90.2361 65.8566 89.7704C64.078 89.1493 62.3613 90.4454 61.832 91.9612Z" fill="#F3F4F6"/>
<path d="M68.422 100.864C68.1774 105.445 63.6127 106.909 57.5103 106.583C51.4079 106.257 47.1263 104.321 47.371 99.7398C47.6555 94.4111 51.2376 90.336 58.3576 90.7162C65.4776 91.0965 68.7281 95.1331 68.422 100.864Z" fill="#F3F4F6"/>
<path d="M56.5055 98.8507C56.4345 100.18 55.5344 101.594 54.3853 101.532C53.2362 101.471 51.4378 100.289 51.5438 98.3038C51.6434 96.4389 53.6841 95.8828 55.7381 96.334C56.9969 96.6105 56.5765 97.5218 56.5055 98.8507Z" fill="#E5E7EB"/>
<path d="M54.3671 98.538C54.3532 98.7983 54.4205 99.0135 54.8132 99.0345C55.206 99.0555 55.2958 98.8486 55.3097 98.5884C55.3236 98.3281 55.1777 98.1087 54.8635 98.0919C54.5494 98.0751 54.381 98.2777 54.3671 98.538Z" fill="white"/>
<path d="M59.4342 99.0072C59.3632 100.336 60.1076 101.838 61.2567 101.899C62.4058 101.961 64.3199 100.977 64.4259 98.9918C64.5255 97.1269 62.5556 96.3566 60.4653 96.5865C59.1841 96.7274 59.5051 97.6782 59.4342 99.0072Z" fill="#E5E7EB"/>
<path d="M61.5938 98.924C61.5799 99.1843 61.4901 99.3911 61.0973 99.3701C60.7046 99.3491 60.6373 99.1339 60.6512 98.8736C60.6651 98.6133 60.8335 98.4107 61.1477 98.4275C61.4618 98.4443 61.6077 98.6637 61.5938 98.924Z" fill="white"/>
<rect x="6.98299" y="47.1389" width="57.9273" height="11.6918" rx="1.06289" transform="rotate(0.0471621 6.98299 47.1389)" fill="#E5E7EB"/>
<rect x="3.25189" y="38.6398" width="52.0815" height="8.5031" rx="1.06289" transform="rotate(0.0471621 3.25189 38.6398)" fill="#E5E7EB"/>
<rect x="10.1606" y="30.1747" width="52.0815" height="8.5031" rx="1.06289" transform="rotate(0.0471621 10.1606 30.1747)" fill="#E5E7EB"/>
</svg>
