<svg width="282" height="282" viewBox="0 0 282 282" fill="none" xmlns="http://www.w3.org/2000/svg">
<rect width="282" height="282" fill="#F3F4F6"/>
<g opacity="0.2">
<path d="M138.621 98.3503C141.132 107.028 134.492 116.59 126.882 118.807C119.271 121.025 108.873 116.426 106.362 107.748C103.851 99.0704 109.123 87.0468 116.733 84.8296C126.882 81.873 136.11 89.6725 138.621 98.3503Z" fill="#222327"/>
<path d="M142.806 98.3503C140.295 107.028 146.934 116.59 154.545 118.807C162.156 121.025 172.553 116.426 175.065 107.748C177.576 99.0704 172.304 87.0468 164.693 84.8296C154.545 81.873 145.317 89.6725 142.806 98.3503Z" fill="#222327"/>
<path d="M189.929 161.746C189.929 183.818 168.287 192.023 138.765 192.023C109.243 192.023 88.0903 183.818 88.0903 161.746C88.0903 136.071 109.243 113.303 138.765 113.303C168.287 113.303 189.929 134.134 189.929 161.746Z" fill="#F3D6DD"/>
<path d="M128.994 157.388C128.994 164.617 124.354 172.548 117.87 172.548C111.386 172.548 100.912 166.657 100.912 155.859C100.912 145.715 112.227 142.107 123.92 143.96C131.086 145.095 128.994 150.159 128.994 157.388Z" fill="#222327"/>
<path d="M123.572 156.659C123.572 157.743 123.246 158.622 121.615 158.622C119.984 158.622 119.658 157.743 119.658 156.659C119.658 155.574 120.31 154.695 121.615 154.695C122.919 154.695 123.572 155.574 123.572 156.659Z" fill="white"/>
<path d="M148.721 157.389C148.721 164.617 153.361 172.548 159.845 172.548C166.329 172.548 176.803 166.658 176.803 155.859C176.803 145.715 165.488 142.107 153.795 143.96C146.629 145.095 148.721 150.16 148.721 157.389Z" fill="#222327"/>
<path d="M154.148 156.658C154.148 157.743 154.474 158.622 156.105 158.622C157.735 158.622 158.062 157.743 158.062 156.658C158.062 155.574 157.409 154.695 156.105 154.695C154.8 154.695 154.148 155.574 154.148 156.658Z" fill="white"/>
<path d="M130.545 168.417C130.466 168.302 130.31 168.273 130.195 168.352C130.081 168.43 130.051 168.587 130.13 168.701L130.545 168.417ZM138.635 166.288L138.873 166.207C138.838 166.105 138.743 166.037 138.635 166.037C138.528 166.037 138.432 166.105 138.397 166.207L138.635 166.288ZM147.141 168.701C147.219 168.587 147.19 168.43 147.076 168.352C146.961 168.273 146.804 168.302 146.726 168.417L147.141 168.701ZM130.13 168.701C130.407 169.106 130.949 169.697 131.689 170.188C132.432 170.68 133.387 171.081 134.486 171.081V170.578C133.511 170.578 132.652 170.223 131.967 169.769C131.282 169.314 130.786 168.769 130.545 168.417L130.13 168.701ZM134.486 171.081C135.648 171.081 136.621 170.239 137.345 169.278C138.078 168.306 138.608 167.145 138.873 166.37L138.397 166.207C138.144 166.945 137.637 168.056 136.944 168.976C136.242 169.907 135.399 170.578 134.486 170.578V171.081ZM138.397 166.37C138.663 167.145 139.193 168.306 139.926 169.278C140.65 170.239 141.623 171.081 142.784 171.081V170.578C141.871 170.578 141.029 169.907 140.327 168.976C139.634 168.056 139.126 166.945 138.873 166.207L138.397 166.37ZM142.784 171.081C143.884 171.081 144.839 170.68 145.581 170.188C146.322 169.697 146.864 169.106 147.141 168.701L146.726 168.417C146.485 168.769 145.989 169.314 145.303 169.769C144.619 170.223 143.759 170.578 142.784 170.578V171.081Z" fill="#222327"/>
<path d="M145.541 165.121C145.541 166.296 139.637 167.828 138.792 168.041C138.724 168.058 138.66 168.058 138.592 168.041C137.748 167.828 131.844 166.296 131.844 165.121C131.844 163.856 135.63 162.503 138.692 162.503C141.754 162.503 145.541 163.856 145.541 165.121Z" fill="#222327"/>
<path d="M137.874 131.471C118.843 131.471 111.849 124.784 110.717 120.874L119.77 111.034L139.383 107.628L166.54 120.874C164.906 124.028 156.927 131.471 137.874 131.471Z" fill="#222327"/>
<path fill-rule="evenodd" clip-rule="evenodd" d="M140.508 203C179.836 203 208.668 191.916 208.668 162.097C208.668 124.793 179.836 96.6509 140.508 96.6509C101.179 96.6509 73 127.41 73 162.097C73 191.916 101.179 203 140.508 203ZM138.962 191.548C167.891 191.548 189.099 183.431 189.099 161.594C189.099 134.276 167.891 113.668 138.962 113.668C110.033 113.668 89.3045 136.193 89.3045 161.594C89.3045 183.431 110.033 191.548 138.962 191.548Z" fill="white"/>
</g>
</svg>
