<svg width="16" height="16" viewBox="0 0 16 16" fill="none" xmlns="http://www.w3.org/2000/svg">
<path d="M3.55752 9.31155C3.40781 9.18014 3.28804 9.07473 3.20026 8.99737V8.95145L3.02452 8.77572C2.33072 8.08191 1.93359 7.16545 1.93359 6.19998V6.0761C1.99506 4.20618 3.59213 2.66665 5.46693 2.66665C5.74521 2.66665 6.11442 2.76342 6.48247 2.9616C6.8298 3.14862 7.13467 3.40381 7.33711 3.6884C7.6316 4.31492 8.53939 4.30364 8.81179 3.65455C8.97953 3.3609 9.27352 3.09548 9.62584 2.899C9.99346 2.69398 10.3599 2.59998 10.6002 2.59998C12.5296 2.59998 14.0719 4.1274 14.1336 6.07579V6.19998C14.1336 7.24199 13.7302 8.14471 13.0615 8.75769L12.8669 8.93604V8.97955C12.7658 9.06523 12.6355 9.17764 12.4836 9.30972C12.1465 9.60288 11.6951 9.99997 11.2035 10.4332C11.0458 10.5722 10.884 10.7149 10.7204 10.8592C9.86416 11.6143 8.95962 12.4119 8.34625 12.9417C8.16973 13.0861 7.89746 13.0861 7.72093 12.9417C6.98872 12.3093 5.82611 11.2962 4.83676 10.4316C4.34113 9.99838 3.88939 9.60284 3.55752 9.31155Z" fill="#FF4180" stroke="#FF4180" stroke-width="1.2"/>
</svg>
